<svg width="188" height="201" viewBox="0 0 188 201" fill="none" xmlns="http://www.w3.org/2000/svg">
<rect width="5.05829" height="5.48218" rx="1.34409" fill="#CDBEBE"/>
<rect x="20.2332" width="5.05832" height="5.48218" rx="1.34409" fill="#CDBEBE"/>
<rect x="40.4667" width="5.05829" height="5.48218" rx="1.34409" fill="#CDBEBE"/>
<rect x="60.6994" width="5.05829" height="5.48218" rx="1.34409" fill="#CDBEBE"/>
<rect x="80.933" width="5.05829" height="5.48218" rx="1.34409" fill="#CDBEBE"/>
<rect x="101.166" width="5.05835" height="5.48218" rx="1.34409" fill="#CDBEBE"/>
<rect x="121.399" width="5.05829" height="5.48218" rx="1.34409" fill="#CDBEBE"/>
<rect x="141.633" width="5.05829" height="5.48218" rx="1.34409" fill="#CDBEBE"/>
<rect x="161.865" width="5.05829" height="5.48218" rx="1.34409" fill="#CDBEBE"/>
<rect x="182.099" width="5.05829" height="5.48218" rx="1.34409" fill="#CDBEBE"/>
<rect y="21.9293" width="5.05829" height="5.48242" rx="1.34409" fill="#CDBEBE"/>
<rect x="20.2332" y="21.9293" width="5.05832" height="5.48242" rx="1.34409" fill="#CDBEBE"/>
<rect x="40.4667" y="21.9293" width="5.05829" height="5.48242" rx="1.34409" fill="#CDBEBE"/>
<rect x="60.6994" y="21.9293" width="5.05829" height="5.48242" rx="1.34409" fill="#CDBEBE"/>
<rect x="80.933" y="21.9293" width="5.05829" height="5.48242" rx="1.34409" fill="#CDBEBE"/>
<rect x="101.166" y="21.9293" width="5.05835" height="5.48242" rx="1.34409" fill="#CDBEBE"/>
<rect x="121.399" y="21.9293" width="5.05829" height="5.48242" rx="1.34409" fill="#CDBEBE"/>
<rect x="141.633" y="21.9293" width="5.05829" height="5.48242" rx="1.34409" fill="#CDBEBE"/>
<rect x="161.865" y="21.9293" width="5.05829" height="5.48242" rx="1.34409" fill="#CDBEBE"/>
<rect x="182.099" y="21.9293" width="5.05829" height="5.48242" rx="1.34409" fill="#CDBEBE"/>
<rect y="43.8589" width="5.05829" height="5.48218" rx="1.34409" fill="#CDBEBE"/>
<rect x="20.2332" y="43.8589" width="5.05832" height="5.48218" rx="1.34409" fill="#CDBEBE"/>
<rect x="40.4667" y="43.8589" width="5.05829" height="5.48218" rx="1.34409" fill="#CDBEBE"/>
<rect x="60.6994" y="43.8589" width="5.05829" height="5.48218" rx="1.34409" fill="#CDBEBE"/>
<rect x="80.933" y="43.8589" width="5.05829" height="5.48218" rx="1.34409" fill="#CDBEBE"/>
<rect x="101.166" y="43.8589" width="5.05835" height="5.48218" rx="1.34409" fill="#CDBEBE"/>
<rect x="121.399" y="43.8589" width="5.05829" height="5.48218" rx="1.34409" fill="#CDBEBE"/>
<rect x="141.633" y="43.8589" width="5.05829" height="5.48218" rx="1.34409" fill="#CDBEBE"/>
<rect x="161.865" y="43.8589" width="5.05829" height="5.48218" rx="1.34409" fill="#CDBEBE"/>
<rect x="182.099" y="43.8589" width="5.05829" height="5.48218" rx="1.34409" fill="#CDBEBE"/>
<rect y="65.7882" width="5.05829" height="5.48254" rx="1.34409" fill="#CDBEBE"/>
<rect x="20.2332" y="65.7882" width="5.05832" height="5.48254" rx="1.34409" fill="#CDBEBE"/>
<rect x="40.4667" y="65.7882" width="5.05829" height="5.48254" rx="1.34409" fill="#CDBEBE"/>
<rect x="60.6994" y="65.7882" width="5.05829" height="5.48254" rx="1.34409" fill="#CDBEBE"/>
<rect x="80.933" y="65.7882" width="5.05829" height="5.48254" rx="1.34409" fill="#CDBEBE"/>
<rect x="101.166" y="65.7882" width="5.05835" height="5.48254" rx="1.34409" fill="#CDBEBE"/>
<rect x="121.399" y="65.7882" width="5.05829" height="5.48254" rx="1.34409" fill="#CDBEBE"/>
<rect x="141.633" y="65.7882" width="5.05829" height="5.48254" rx="1.34409" fill="#CDBEBE"/>
<rect x="161.865" y="65.7882" width="5.05829" height="5.48254" rx="1.34409" fill="#CDBEBE"/>
<rect x="182.099" y="65.7882" width="5.05829" height="5.48254" rx="1.34409" fill="#CDBEBE"/>
<rect y="87.7184" width="5.05829" height="5.4823" rx="1.34409" fill="#CDBEBE"/>
<rect x="20.2332" y="87.7184" width="5.05832" height="5.4823" rx="1.34409" fill="#CDBEBE"/>
<rect x="40.4667" y="87.7184" width="5.05829" height="5.4823" rx="1.34409" fill="#CDBEBE"/>
<rect x="60.6994" y="87.7184" width="5.05829" height="5.4823" rx="1.34409" fill="#CDBEBE"/>
<rect x="80.933" y="87.7184" width="5.05829" height="5.4823" rx="1.34409" fill="#CDBEBE"/>
<rect x="101.166" y="87.7184" width="5.05835" height="5.4823" rx="1.34409" fill="#CDBEBE"/>
<rect x="121.399" y="87.7184" width="5.05829" height="5.4823" rx="1.34409" fill="#CDBEBE"/>
<rect x="141.633" y="87.7184" width="5.05829" height="5.4823" rx="1.34409" fill="#CDBEBE"/>
<rect x="161.865" y="87.7184" width="5.05829" height="5.4823" rx="1.34409" fill="#CDBEBE"/>
<rect x="182.099" y="87.7184" width="5.05829" height="5.4823" rx="1.34409" fill="#CDBEBE"/>
<rect y="109.648" width="5.05829" height="5.48254" rx="1.34409" fill="#CDBEBE"/>
<rect x="20.2332" y="109.648" width="5.05832" height="5.48254" rx="1.34409" fill="#CDBEBE"/>
<rect x="40.4667" y="109.648" width="5.05829" height="5.48254" rx="1.34409" fill="#CDBEBE"/>
<rect x="60.6994" y="109.648" width="5.05829" height="5.48254" rx="1.34409" fill="#CDBEBE"/>
<rect x="80.933" y="109.648" width="5.05829" height="5.48254" rx="1.34409" fill="#CDBEBE"/>
<rect x="101.166" y="109.648" width="5.05835" height="5.48254" rx="1.34409" fill="#CDBEBE"/>
<rect x="121.399" y="109.648" width="5.05829" height="5.48254" rx="1.34409" fill="#CDBEBE"/>
<rect x="141.633" y="109.648" width="5.05829" height="5.48254" rx="1.34409" fill="#CDBEBE"/>
<rect x="161.865" y="109.648" width="5.05829" height="5.48254" rx="1.34409" fill="#CDBEBE"/>
<rect x="182.099" y="109.648" width="5.05829" height="5.48254" rx="1.34409" fill="#CDBEBE"/>
<rect y="131.577" width="5.05829" height="5.48267" rx="1.34409" fill="#CDBEBE"/>
<rect y="152.728" width="5.05829" height="5.4823" rx="1.34409" fill="#CDBEBE"/>
<rect y="173.878" width="5.05829" height="5.48242" rx="1.34409" fill="#CDBEBE"/>
<rect y="195.027" width="5.05829" height="5.48267" rx="1.34409" fill="#CDBEBE"/>
<rect x="20.2332" y="131.577" width="5.05832" height="5.48267" rx="1.34409" fill="#CDBEBE"/>
<rect x="20.2332" y="152.728" width="5.05832" height="5.4823" rx="1.34409" fill="#CDBEBE"/>
<rect x="20.2332" y="173.878" width="5.05832" height="5.48242" rx="1.34409" fill="#CDBEBE"/>
<rect x="20.2332" y="195.027" width="5.05832" height="5.48267" rx="1.34409" fill="#CDBEBE"/>
<rect x="40.4667" y="131.577" width="5.05829" height="5.48267" rx="1.34409" fill="#CDBEBE"/>
<rect x="40.4667" y="152.728" width="5.05829" height="5.4823" rx="1.34409" fill="#CDBEBE"/>
<rect x="40.4667" y="173.878" width="5.05829" height="5.48242" rx="1.34409" fill="#CDBEBE"/>
<rect x="40.4667" y="195.027" width="5.05829" height="5.48267" rx="1.34409" fill="#CDBEBE"/>
<rect x="60.6994" y="131.577" width="5.05829" height="5.48267" rx="1.34409" fill="#CDBEBE"/>
<rect x="60.6994" y="152.728" width="5.05829" height="5.4823" rx="1.34409" fill="#CDBEBE"/>
<rect x="60.6994" y="173.878" width="5.05829" height="5.48242" rx="1.34409" fill="#CDBEBE"/>
<rect x="60.6994" y="195.027" width="5.05829" height="5.48267" rx="1.34409" fill="#CDBEBE"/>
<rect x="80.933" y="131.577" width="5.05829" height="5.48267" rx="1.34409" fill="#CDBEBE"/>
<rect x="80.933" y="152.728" width="5.05829" height="5.4823" rx="1.34409" fill="#CDBEBE"/>
<rect x="80.933" y="173.878" width="5.05829" height="5.48242" rx="1.34409" fill="#CDBEBE"/>
<rect x="80.933" y="195.027" width="5.05829" height="5.48267" rx="1.34409" fill="#CDBEBE"/>
<rect x="101.166" y="131.577" width="5.05835" height="5.48267" rx="1.34409" fill="#CDBEBE"/>
<rect x="101.166" y="152.728" width="5.05835" height="5.4823" rx="1.34409" fill="#CDBEBE"/>
<rect x="101.166" y="173.878" width="5.05835" height="5.48242" rx="1.34409" fill="#CDBEBE"/>
<rect x="101.166" y="195.027" width="5.05835" height="5.48267" rx="1.34409" fill="#CDBEBE"/>
<rect x="121.399" y="131.577" width="5.05829" height="5.48267" rx="1.34409" fill="#CDBEBE"/>
<rect x="121.399" y="152.728" width="5.05829" height="5.4823" rx="1.34409" fill="#CDBEBE"/>
<rect x="121.399" y="173.878" width="5.05829" height="5.48242" rx="1.34409" fill="#CDBEBE"/>
<rect x="121.399" y="195.027" width="5.05829" height="5.48267" rx="1.34409" fill="#CDBEBE"/>
<rect x="141.633" y="131.577" width="5.05829" height="5.48267" rx="1.34409" fill="#CDBEBE"/>
<rect x="141.633" y="152.728" width="5.05829" height="5.4823" rx="1.34409" fill="#CDBEBE"/>
<rect x="141.633" y="173.878" width="5.05829" height="5.48242" rx="1.34409" fill="#CDBEBE"/>
<rect x="141.633" y="195.027" width="5.05829" height="5.48267" rx="1.34409" fill="#CDBEBE"/>
<rect x="161.865" y="131.577" width="5.05829" height="5.48267" rx="1.34409" fill="#CDBEBE"/>
<rect x="161.865" y="152.728" width="5.05829" height="5.4823" rx="1.34409" fill="#CDBEBE"/>
<rect x="161.865" y="173.878" width="5.05829" height="5.48242" rx="1.34409" fill="#CDBEBE"/>
<rect x="161.865" y="195.027" width="5.05829" height="5.48267" rx="1.34409" fill="#CDBEBE"/>
<rect x="182.099" y="131.577" width="5.05829" height="5.48267" rx="1.34409" fill="#CDBEBE"/>
<rect x="182.099" y="152.728" width="5.05829" height="5.4823" rx="1.34409" fill="#CDBEBE"/>
<rect x="182.099" y="173.878" width="5.05829" height="5.48242" rx="1.34409" fill="#CDBEBE"/>
<rect x="182.099" y="195.027" width="5.05829" height="5.48267" rx="1.34409" fill="#CDBEBE"/>
</svg>
