<svg width="44" height="44" viewBox="0 0 44 44" fill="none" xmlns="http://www.w3.org/2000/svg">
<circle cx="22" cy="22" r="22" fill="#1DA1F2"/>
<path d="M17.8186 31.0103C26.3096 31.0103 30.953 23.9757 30.953 17.8759C30.953 17.6761 30.9489 17.4771 30.9399 17.2793C31.8412 16.6276 32.6245 15.8144 33.2426 14.8888C32.4155 15.2566 31.5253 15.5038 30.5917 15.6157C31.5447 15.044 32.2764 14.14 32.6215 13.0623C31.7296 13.5911 30.7418 13.9753 29.6903 14.1828C28.8479 13.2855 27.6485 12.7244 26.3205 12.7244C23.7714 12.7244 21.704 14.7916 21.704 17.3399C21.704 17.7024 21.7446 18.0546 21.8237 18.3926C17.987 18.1995 14.5848 16.3627 12.3082 13.5695C11.912 14.2516 11.6833 15.0441 11.6833 15.8898C11.6833 17.4912 12.4983 18.9052 13.7375 19.7322C12.9801 19.709 12.2688 19.501 11.6468 19.155C11.6461 19.1744 11.6461 19.1932 11.6461 19.2139C11.6461 21.4496 13.2373 23.3162 15.3498 23.7392C14.9618 23.8447 14.5536 23.9016 14.1325 23.9016C13.8356 23.9016 13.5461 23.8724 13.2648 23.8183C13.8525 25.6525 15.5568 26.9872 17.5773 27.0246C15.9972 28.263 14.0069 29.0006 11.8437 29.0006C11.4717 29.0006 11.1039 28.9793 10.7425 28.9367C12.7856 30.2462 15.2116 31.0104 17.8188 31.0104" fill="white"/>
</svg>
