<svg width="44" height="44" viewBox="0 0 44 44" fill="none" xmlns="http://www.w3.org/2000/svg">
<circle cx="22" cy="22" r="22" fill="#FF0000"/>
<path d="M32.7747 16.3763C32.5154 15.4124 31.7554 14.6526 30.7916 14.393C29.0309 13.9113 21.988 13.9113 21.988 13.9113C21.988 13.9113 14.9454 13.9113 13.1847 14.3747C12.2394 14.634 11.4609 15.4125 11.2016 16.3763C10.7383 18.1369 10.7383 21.788 10.7383 21.788C10.7383 21.788 10.7383 25.4576 11.2016 27.1998C11.4612 28.1635 12.2209 28.9234 13.1848 29.1829C14.9639 29.6648 21.9883 29.6648 21.9883 29.6648C21.9883 29.6648 29.0309 29.6648 30.7916 29.2013C31.7555 28.9419 32.5154 28.1821 32.7749 27.2183C33.2381 25.4576 33.2381 21.8066 33.2381 21.8066C33.2381 21.8066 33.2567 18.1369 32.7747 16.3763ZM19.7457 25.1611V18.415L25.6022 21.788L19.7457 25.1611Z" fill="white"/>
</svg>
